<svg xmlns="http://www.w3.org/2000/svg" width="24" height="24" viewBox="0 0 24 24">
    <defs>
        <clipPath id="clip-path">
            <path id="Rectangle_56" d="M0 0H24V24H0z" class="cls-1"/>
        </clipPath>
        <style>
            .cls-1{fill:#9c5aff}
        </style>
    </defs>
    <g id="Mask_Group_11" clip-path="url(#clip-path)">
        <path id="calendar-alt" d="M13.393 3H1.607A1.608 1.608 0 0 0 0 4.607v11.786A1.608 1.608 0 0 0 1.607 18h11.786A1.608 1.608 0 0 0 15 16.393V4.607A1.608 1.608 0 0 0 13.393 3zM1.607 4.071h11.786a.537.537 0 0 1 .536.536v1.607H1.071V4.607a.537.537 0 0 1 .536-.536zm11.786 12.858H1.607a.537.537 0 0 1-.536-.536V7.286h12.858v9.107a.537.537 0 0 1-.536.536zm-8.438-5.358H3.616a.4.4 0 0 1-.4-.4V9.83a.4.4 0 0 1 .4-.4h1.339a.4.4 0 0 1 .4.4v1.34a.4.4 0 0 1-.4.401zm3.214 0H6.83a.4.4 0 0 1-.4-.4V9.83a.4.4 0 0 1 .4-.4h1.34a.4.4 0 0 1 .4.4v1.34a.4.4 0 0 1-.4.401zm3.214 0h-1.338a.4.4 0 0 1-.4-.4V9.83a.4.4 0 0 1 .4-.4h1.339a.4.4 0 0 1 .4.4v1.34a.4.4 0 0 1-.4.401zM8.17 14.786H6.83a.4.4 0 0 1-.4-.4v-1.341a.4.4 0 0 1 .4-.4h1.34a.4.4 0 0 1 .4.4v1.339a.4.4 0 0 1-.4.402zm-3.214 0h-1.34a.4.4 0 0 1-.4-.4v-1.341a.4.4 0 0 1 .4-.4h1.339a.4.4 0 0 1 .4.4v1.339a.4.4 0 0 1-.4.402zm6.429 0h-1.34a.4.4 0 0 1-.4-.4v-1.341a.4.4 0 0 1 .4-.4h1.339a.4.4 0 0 1 .4.4v1.339a.4.4 0 0 1-.4.402z" class="cls-1" transform="translate(4.5 1.5)"/>
    </g>
</svg>
