<svg xmlns="http://www.w3.org/2000/svg" width="32" height="32" viewBox="0 0 32 32">
    <defs>
        <clipPath id="4b3fjvf9ga">
            <path fill="#fff" stroke="#707070" d="M0 0H32V32H0z" transform="translate(170.5 734)"/>
        </clipPath>
    </defs>
    <g clip-path="url(#4b3fjvf9ga)" transform="translate(-170.5 -734)">
        <path fill="#b6b6cb" d="M684.5-1773a4.005 4.005 0 0 1-4-4v-14a4 4 0 0 1 4-4h14a4 4 0 0 1 4 4v14a4.005 4.005 0 0 1-4 4zm-2-18v14a2 2 0 0 0 2 2h14a2 2 0 0 0 2-2v-14a2 2 0 0 0-2-2h-14a2 2 0 0 0-2 2zm7.5 10.5v-2h-2a1.5 1.5 0 0 1-1.5-1.5 1.5 1.5 0 0 1 1.5-1.5h2v-2a1.5 1.5 0 0 1 1.5-1.5 1.5 1.5 0 0 1 1.5 1.5v2h2a1.5 1.5 0 0 1 1.5 1.5 1.5 1.5 0 0 1-1.5 1.5h-2v2a1.5 1.5 0 0 1-1.5 1.5 1.5 1.5 0 0 1-1.5-1.5z" transform="translate(-505 2534)"/>
    </g>
</svg>
