<svg xmlns="http://www.w3.org/2000/svg" width="32" height="32" viewBox="0 0 32 32">
    <defs>
        <clipPath id="xq1zwzciwa">
            <path d="M0 0H32V32H0z" transform="translate(268 22)"/>
        </clipPath>
    </defs>
    <g clip-path="url(#xq1zwzciwa)" transform="translate(-268 -22)">
        <path d="M12.668 33.25a.317.317 0 0 1 .293.2l.863 2.3h4.3a.627.627 0 0 1 .625.625v11.25a.627.627 0 0 1-.625.625H1.875a.627.627 0 0 1-.625-.625v-11.25a.627.627 0 0 1 .625-.625h4.3l.785-2.094a.626.626 0 0 1 .586-.406h5.117m0-1.25H7.551A1.872 1.872 0 0 0 5.8 33.215L5.313 34.5H1.875A1.875 1.875 0 0 0 0 36.375v11.25A1.875 1.875 0 0 0 1.875 49.5h16.25A1.875 1.875 0 0 0 20 47.625v-11.25a1.875 1.875 0 0 0-1.875-1.875h-3.437l-.559-1.484A1.553 1.553 0 0 0 12.668 32zM10 46.688A4.688 4.688 0 1 1 14.688 42 4.691 4.691 0 0 1 10 46.688zm0-8.125A3.438 3.438 0 1 0 13.438 42 3.443 3.443 0 0 0 10 38.563z" transform="translate(274 -3)"/>
    </g>
</svg>
