<svg xmlns="http://www.w3.org/2000/svg" width="20" height="20" viewBox="0 0 20 20">
    <defs>
        <clipPath id="clip-path">
            <path id="Rectangle_56" d="M0 0H20V20H0z" class="cls-1"/>
        </clipPath>
        <style>
            .cls-1{fill:#999}
        </style>
    </defs>
    <g id="Mask_Group_11" clip-path="url(#clip-path)">
        <path id="Union_129" d="M6.421 12.632l-1.636-1.914q-.673-.787-1.361-1.582C2.913 8.542 2.4 7.947 1.893 7.353l-.23-.267A5.162 5.162 0 0 1 0 3.822 3.676 3.676 0 0 1 .712 1.6 4.082 4.082 0 0 1 3.962 0a3.9 3.9 0 0 1 .675.058A4.512 4.512 0 0 1 7.5 2.043 4.519 4.519 0 0 1 10.362.057 3.966 3.966 0 0 1 11.037 0a4.083 4.083 0 0 1 3.251 1.6A3.679 3.679 0 0 1 15 3.822a5.164 5.164 0 0 1-1.663 3.265l-.23.267c-.506.594-1.02 1.189-1.532 1.783-.457.529-.912 1.058-1.36 1.582l-1.636 1.913a1.426 1.426 0 0 1-2.157 0zM1.468 2.151a2.733 2.733 0 0 0-.53 1.655 4.406 4.406 0 0 0 1.435 2.667l.234.271c.506.593 1.018 1.186 1.528 1.779.458.53.914 1.059 1.363 1.585l1.636 1.914a.506.506 0 0 0 .732 0L9.5 10.109c.449-.526.906-1.055 1.363-1.585.511-.593 1.023-1.186 1.529-1.779l.234-.271a4.409 4.409 0 0 0 1.434-2.667 2.741 2.741 0 0 0-.53-1.655 3.129 3.129 0 0 0-2.5-1.213 3.067 3.067 0 0 0-.515.043A3.786 3.786 0 0 0 7.928 3.2a.468.468 0 0 1-.857 0A3.782 3.782 0 0 0 4.478.982a3.011 3.011 0 0 0-.516-.044 3.129 3.129 0 0 0-2.494 1.213zm10.914 1.69a1.174 1.174 0 0 0-1.173-1.171.234.234 0 0 1 0-.469 1.642 1.642 0 0 1 1.641 1.64.234.234 0 1 1-.469 0z" class="cls-1" transform="translate(2.5 3.75)"/>
    </g>
</svg>
