<svg xmlns="http://www.w3.org/2000/svg" id="icon" width="32" height="32" viewBox="0 0 32 32">
    <defs>
        <clipPath id="clip-path">
            <path id="Rectangle_56" d="M0 0H32V32H0z" class="cls-1"/>
        </clipPath>
        <style>
            .cls-1{fill:#9c5aff}
        </style>
    </defs>
    <g id="Mask_Group_11" clip-path="url(#clip-path)">
        <path id="Union_126" d="M1.559 17.6A1.568 1.568 0 0 1 0 16.042V3.226A3.235 3.235 0 0 1 3.226 0h15.208a3.233 3.233 0 0 1 3.233 3.226v8.541A3.233 3.233 0 0 1 18.442 15H5.759a.681.681 0 0 0-.4.133L2.5 17.292a1.577 1.577 0 0 1-.937.309zm.108-14.374v12.608L4.359 13.8a2.364 2.364 0 0 1 1.4-.467h12.675A1.567 1.567 0 0 0 20 11.767V3.226a1.567 1.567 0 0 0-1.559-1.559H3.226a1.567 1.567 0 0 0-1.559 1.559zm12.658 4.557a1.042 1.042 0 1 1 1.041 1.042 1.041 1.041 0 0 1-1.041-1.042zm-4.275 0a1.042 1.042 0 1 1 1.041 1.042 1.041 1.041 0 0 1-1.041-1.042zm-4.375 0a1.042 1.042 0 1 1 1.042 1.042 1.041 1.041 0 0 1-1.042-1.042z" class="cls-1" transform="translate(5 7.333)"/>
    </g>
</svg>
