<svg xmlns="http://www.w3.org/2000/svg" width="20" height="20" viewBox="0 0 20 20">
    <defs>
        <clipPath id="clip-path">
            <path id="Rectangle_56" d="M0 0H20V20H0z" class="cls-1"/>
        </clipPath>
        <style>
            .cls-1{fill:#999}
        </style>
    </defs>
    <g id="Mask_Group_11" clip-path="url(#clip-path)">
        <path id="Union_116" d="M7.5 12.907a.515.515 0 0 1-.37-.154l-1.954-1.939H2.183A2.19 2.19 0 0 1 0 8.631V2.184A2.19 2.19 0 0 1 2.183 0h10.633A2.191 2.191 0 0 1 15 2.184v6.447a2.191 2.191 0 0 1-2.184 2.184H9.809L7.87 12.754a.516.516 0 0 1-.367.154zM1.046 2.184v6.447a1.137 1.137 0 0 0 1.137 1.137h3.224a.52.52 0 0 1 .37.153L7.5 11.645l1.723-1.724a.52.52 0 0 1 .37-.153h3.223a1.138 1.138 0 0 0 1.137-1.137V2.184a1.137 1.137 0 0 0-1.137-1.137H2.183a1.137 1.137 0 0 0-1.137 1.137zm3.837 5.84a.523.523 0 0 1 0-1.047h5.233a.523.523 0 0 1 0 1.047zm0-2.093a.523.523 0 0 1 0-1.047h5.233a.523.523 0 0 1 0 1.047zm0-2.093a.523.523 0 0 1 0-1.046h5.233a.523.523 0 0 1 0 1.046z" class="cls-1" transform="translate(2.5 3.75)"/>
    </g>
</svg>
